<svg width="28" height="30" viewBox="0 0 28 24" fill="none" xmlns="http://www.w3.org/2000/svg">
    <path d="M13 6.00003C13 3.25003 15.3125 0.962527 18.0625 1.00003C19.0256 1.01115 19.9649 1.30018 20.7676 1.83237C21.5704 2.36457 22.2023 3.11728 22.5875 4.00003H27L22.9625 8.03753C22.7019 12.0932 20.9066 15.8975 17.9415 18.6769C14.9764 21.4562 11.0641 23.002 7 23C3 23 2 21.5 2 21.5C2 21.5 6 20 8 17C8 17 3.75509e-06 13 2 2.00003C2 2.00003 7 7.00003 13 8.00003V6.00003Z" stroke="#2871FF" stroke-width="2" stroke-linecap="round" stroke-linejoin="round"/>
</svg>  